<?xml version="1.0" encoding="utf-8"?>
<!-- Generator: Adobe Illustrator 18.0.0, SVG Export Plug-In . SVG Version: 6.00 Build 0)  -->
<!DOCTYPE svg PUBLIC "-//W3C//DTD SVG 1.1//EN" "http://www.w3.org/Graphics/SVG/1.1/DTD/svg11.dtd">
<svg version="1.1" id="Layer_1" xmlns="http://www.w3.org/2000/svg" xmlns:xlink="http://www.w3.org/1999/xlink" x="0px" y="0px"
	 viewBox="0 0 32 32" enable-background="new 0 0 32 32" xml:space="preserve">
<path fill="#FFFFFF" d="M20.4,16.5l6.6-6.6c1-1,1-2.5,0-3.5l-0.9-0.9c-1-1-2.5-1-3.5,0L16,12.1L9.4,5.6c-1-1-2.5-1-3.5,0L5.1,6.4
	c-1,1-1,2.5,0,3.5l6.6,6.6l-6.6,6.6c-1,1-1,2.5,0,3.5l0.9,0.9c1,1,2.5,1,3.5,0l6.6-6.6l6.6,6.6c1,1,2.5,1,3.5,0l0.9-0.9
	c1-1,1-2.5,0-3.5L20.4,16.5z"/>
</svg>
