<?xml version="1.0" encoding="utf-8"?>
<!-- Generator: Adobe Illustrator 18.0.0, SVG Export Plug-In . SVG Version: 6.00 Build 0)  -->
<!DOCTYPE svg PUBLIC "-//W3C//DTD SVG 1.1//EN" "http://www.w3.org/Graphics/SVG/1.1/DTD/svg11.dtd" [
	<!ENTITY ns_extend "http://ns.adobe.com/Extensibility/1.0/">
	<!ENTITY ns_ai "http://ns.adobe.com/AdobeIllustrator/10.0/">
	<!ENTITY ns_graphs "http://ns.adobe.com/Graphs/1.0/">
	<!ENTITY ns_vars "http://ns.adobe.com/Variables/1.0/">
	<!ENTITY ns_imrep "http://ns.adobe.com/ImageReplacement/1.0/">
	<!ENTITY ns_sfw "http://ns.adobe.com/SaveForWeb/1.0/">
	<!ENTITY ns_custom "http://ns.adobe.com/GenericCustomNamespace/1.0/">
	<!ENTITY ns_adobe_xpath "http://ns.adobe.com/XPath/1.0/">
]>
<svg version="1.1" id="Layer_1" xmlns:x="&ns_extend;" xmlns:i="&ns_ai;" xmlns:graph="&ns_graphs;"
	 xmlns="http://www.w3.org/2000/svg" xmlns:xlink="http://www.w3.org/1999/xlink" x="0px" y="0px" viewBox="0 0 595.3 841.9"
	 enable-background="new 0 0 595.3 841.9" xml:space="preserve">
<metadata>
	<sfw  xmlns="&ns_sfw;">
		<slices></slices>
		<sliceSourceBounds  height="410" width="510" x="55" y="234.9" bottomLeftOrigin="true"></sliceSourceBounds>
	</sfw>
</metadata>
<g>
	<g>
		<path fill="#FFFFFF" d="M55,607c0-136.7,0-273.3,0-410c170,0,340,0,510,0c0,136.7,0,273.3,0,410C395,607,225,607,55,607z
			 M113.5,546.9c0-82.5,0-164.6,0-247.1c2.2,0,4,0,5.8,0c46.8,0,93.6,0,140.5,0c3.1,0,5.5-0.3,7.8-3.1
			c19.7-24.2,44.3-41.5,73.8-51.8c1-0.4,2-0.9,3.5-1.6c-96.2,0-191.6,0-287.1,0c0,120.3,0,240.3,0,360.3c143.5,0,286.5,0,429.6,0
			c0-50.2,0-100.2,0-151c-14.2,13.5-27.1,27-41.5,38.9c-10.9,9-16,18.8-14,32.9c1,7.3,0.2,14.9,0.2,22.5
			C325.5,546.9,219.8,546.9,113.5,546.9z M432,206.5c0,3,0,4.6,0,6.2c0,19-0.1,38,0.1,57c0,4-1.2,5.2-5.1,5
			c-6.8-0.3-13.7-0.1-20.5-0.1c-14.7,0-29.3,0.2-43.6,4c-85.4,22.8-122.4,121.4-76.4,196.3c0.6,0.9,1.4,1.7,2.7,3.1
			c0.8-14.1,3.2-27,8.9-39c15.2-31.8,39.5-52.4,75.1-56.1c19-2,38.3-0.7,57.4-0.8c0.3,0,0.6,0.3,1.4,0.8c0,22.6,0,45.5,0,69.7
			c44.1-41.6,87.1-82.2,130.5-123.1C519.1,288.7,476.1,248.1,432,206.5z"/>
		<path fill="#364357" d="M113.5,546.9c106.3,0,212,0,318.5,0c0-7.7,0.8-15.2-0.2-22.5c-1.9-14.1,3.1-23.9,14-32.9
			c14.4-11.8,27.3-25.4,41.5-38.9c0,50.8,0,100.7,0,151c-143,0-286.1,0-429.6,0c0-119.9,0-239.9,0-360.3c95.5,0,190.9,0,287.1,0
			c-1.6,0.7-2.5,1.2-3.5,1.6c-29.5,10.3-54.1,27.6-73.8,51.8c-2.3,2.8-4.7,3.1-7.8,3.1c-46.8,0-93.6,0-140.5,0c-1.8,0-3.6,0-5.8,0
			C113.5,382.3,113.5,464.3,113.5,546.9z"/>
		<path fill="#364357" d="M432,206.5c44.1,41.6,87.1,82.2,130.5,123.1C519.1,370.5,476,411.1,432,452.7c0-24.3,0-47.2,0-69.7
			c-0.8-0.5-1.1-0.8-1.4-0.8c-19.1,0.1-38.4-1.2-57.4,0.8c-35.7,3.7-59.9,24.3-75.1,56.1c-5.7,12-8.2,24.9-8.9,39
			c-1.3-1.5-2.1-2.2-2.7-3.1c-46-74.8-8.9-173.4,76.4-196.3c14.3-3.8,28.9-4.1,43.6-4c6.8,0,13.7-0.2,20.5,0.1c3.9,0.2,5.1-1,5.1-5
			c-0.2-19-0.1-38-0.1-57C432,211.1,432,209.5,432,206.5z"/>
	</g>
</g>
</svg>
