<?xml version="1.0" encoding="utf-8"?>
<!-- Generator: Adobe Illustrator 18.0.0, SVG Export Plug-In . SVG Version: 6.00 Build 0)  -->
<!DOCTYPE svg PUBLIC "-//W3C//DTD SVG 1.1//EN" "http://www.w3.org/Graphics/SVG/1.1/DTD/svg11.dtd">
<svg version="1.1" id="Layer_1" xmlns="http://www.w3.org/2000/svg" xmlns:xlink="http://www.w3.org/1999/xlink" x="0px" y="0px"
	 viewBox="0 0 595.3 841.9" enable-background="new 0 0 595.3 841.9" xml:space="preserve">
<path fill="#FFFFFF" d="M481.2,445.7c0-7.4,2.5-17.4,2.5-24.8s0-17.4-2.5-24.8l52.1-37.2c5-2.5,7.4-9.9,2.5-17.4l-49.6-86.8
	c-2.5-7.4-9.9-9.9-14.9-7.4l-59.5,27.3c-12.4-9.9-29.8-19.8-44.6-24.8l-7.4-64.5c0-7.4-5-12.4-12.4-12.4H248
	c-7.4,0-12.4,5-12.4,12.4l-7.4,62c-17.4,7.4-32.2,14.9-44.6,24.8L124,247.3c-5-2.5-12.4,0-14.9,5l-49.6,86.8c-5,7.4-5,14.9,2.5,17.4
	l52.1,39.7c0,7.4-2.5,17.4-2.5,24.8s0,17.4,2.5,24.8L62,483c-5,2.5-7.4,9.9-2.5,17.4l49.6,86.8c2.5,7.4,9.9,9.9,14.9,7.4l59.5-27.3
	c12.4,9.9,29.8,19.8,44.6,24.8l7.4,64.5c0,7.4,5,12.4,12.4,12.4h99.2c7.4,0,12.4-5,12.4-12.4l7.4-64.5c17.4-7.4,32.2-14.9,44.6-24.8
	l59.5,27.3c5,2.5,12.4,0,14.9-5l49.6-86.8c2.5-5,2.5-12.4-2.5-17.4L481.2,445.7z M297.6,520.2c-54.6,0-99.2-44.6-99.2-99.2
	s44.6-99.2,99.2-99.2s99.2,44.6,99.2,99.2S352.2,520.2,297.6,520.2z"/>
</svg>
