<?xml version="1.0" encoding="utf-8"?>
<!-- Generator: Adobe Illustrator 18.0.0, SVG Export Plug-In . SVG Version: 6.00 Build 0)  -->
<!DOCTYPE svg PUBLIC "-//W3C//DTD SVG 1.1//EN" "http://www.w3.org/Graphics/SVG/1.1/DTD/svg11.dtd">
<svg version="1.1" id="Layer_1" xmlns="http://www.w3.org/2000/svg" xmlns:xlink="http://www.w3.org/1999/xlink" x="0px" y="0px"
	 viewBox="0 0 16 16" enable-background="new 0 0 16 16" xml:space="preserve">
<path fill="#FFFFFF" d="M14,8c-0.6,0-0.9,0.4-1,0.9c-0.4,1.6-1.9,4.1-5,4.1c-0.8,0-1.5-0.2-2.1-0.5L6.4,12C6.8,11.7,7,11.4,7,11
	c0-0.5-0.4-1-1-1H3c-0.6,0-1,0.5-1,1v3c0,0.5,0.4,1,1,1c0.5,0,0.7-0.3,1-0.6L4.4,14c1.1,0.6,2.3,1,3.6,1c5,0,7-4.8,7-5.9
	C15,8.3,14.5,8,14,8z M3,7.1C3.4,5.5,4.9,3,8,3c0.8,0,1.5,0.2,2.1,0.5L9.6,4C9.2,4.3,9,4.6,9,5c0,0.5,0.4,1,1,1h3c0.6,0,1-0.5,1-1V2
	c0-0.5-0.4-1-1-1c-0.5,0-0.7,0.3-1,0.6L11.6,2C10.5,1.4,9.3,1,8,1C3,1,1,5.8,1,6.9C1,7.7,1.5,8,2,8C2.6,8,2.9,7.6,3,7.1z"/>
</svg>
