<?xml version="1.0" encoding="utf-8"?>
<!-- Generator: Adobe Illustrator 18.0.0, SVG Export Plug-In . SVG Version: 6.00 Build 0)  -->
<!DOCTYPE svg PUBLIC "-//W3C//DTD SVG 1.1//EN" "http://www.w3.org/Graphics/SVG/1.1/DTD/svg11.dtd">
<svg version="1.1" id="Layer_1" xmlns:sketch="http://www.bohemiancoding.com/sketch/ns"
	 xmlns="http://www.w3.org/2000/svg" xmlns:xlink="http://www.w3.org/1999/xlink" x="0px" y="0px" viewBox="0 0 22 22"
	 enable-background="new 0 0 22 22" xml:space="preserve">
<title></title>
<g id="miu">
	<g id="circle_help_question-mark_outline_stroke">
		<g>
			<path id="path-1" fill="#FFFFFF" d="M0,11C0,4.9,4.9,0,11,0s11,4.9,11,11s-4.9,11-11,11S0,17.1,0,11L0,11z M21,11
				c0-5.5-4.5-10-10-10S1,5.5,1,11s4.5,10,10,10S21,16.5,21,11L21,11z M9.9,14.9h1.5v1.5H9.9V14.9L9.9,14.9z M8.3,6.5
				c0.6-0.6,1.4-1,2.5-1c1,0,1.7,0.3,2.3,0.8s0.9,1.3,0.9,2.1c0,0.5-0.1,0.9-0.3,1.3s-0.6,0.8-1.3,1.4c-0.5,0.5-0.8,0.8-0.9,1.2
				s-0.2,0.8-0.2,1.4H9.9c0-0.7,0.1-1.3,0.2-1.7s0.5-0.9,1.1-1.5l0.6-0.6c0.2-0.2,0.3-0.3,0.4-0.5c0.2-0.3,0.3-0.6,0.3-1
				c0-0.5-0.1-0.9-0.4-1.2s-0.8-0.5-1.4-0.5C9.9,6.7,9.3,7,9,7.6C8.8,7.9,8.7,8.4,8.7,9.1H7.4C7.4,8,7.7,7.2,8.3,6.5
				C8.3,6.5,7.7,7.2,8.3,6.5L8.3,6.5z"/>
		</g>
		<g>
			<path id="path-1_1_" fill="none" d="M0,11C0,4.9,4.9,0,11,0s11,4.9,11,11s-4.9,11-11,11S0,17.1,0,11L0,11z M21,11
				c0-5.5-4.5-10-10-10S1,5.5,1,11s4.5,10,10,10S21,16.5,21,11L21,11z M9.9,14.9h1.5v1.5H9.9V14.9L9.9,14.9z M8.3,6.5
				c0.6-0.6,1.4-1,2.5-1c1,0,1.7,0.3,2.3,0.8s0.9,1.3,0.9,2.1c0,0.5-0.1,0.9-0.3,1.3s-0.6,0.8-1.3,1.4c-0.5,0.5-0.8,0.8-0.9,1.2
				s-0.2,0.8-0.2,1.4H9.9c0-0.7,0.1-1.3,0.2-1.7s0.5-0.9,1.1-1.5l0.6-0.6c0.2-0.2,0.3-0.3,0.4-0.5c0.2-0.3,0.3-0.6,0.3-1
				c0-0.5-0.1-0.9-0.4-1.2s-0.8-0.5-1.4-0.5C9.9,6.7,9.3,7,9,7.6C8.8,7.9,8.7,8.4,8.7,9.1H7.4C7.4,8,7.7,7.2,8.3,6.5
				C8.3,6.5,7.7,7.2,8.3,6.5L8.3,6.5z"/>
		</g>
	</g>
</g>
</svg>
